<svg xmlns="http://www.w3.org/2000/svg" width="812" height="785" viewBox="205 200 460 460" fill="#1f77b4">
  <path fill-rule="evenodd" d="M320.92 199.92c-1.6 1.61-2.92 3.8-2.92 4.86 0 1.97 1 5.44 14.4 49.72 4.15 13.75 7.82 26.35 8.15 28 .59 2.94-.25 3.69-35.45 31.75-19.83 15.81-36.5 28.75-37.07 28.75-.56 0-14.4-10.05-30.77-22.34-16.37-12.3-30.74-22.87-31.94-23.5-3.24-1.72-4.83-1.44-8.24 1.43-3.66 3.08-4.16 7.87-1.16 11.1 1.05 1.13 17 13.36 35.43 27.18 28.68 21.5 34 25.13 36.96 25.13 2.8 0 5.35-1.5 13.57-8l10.12-8h14.35c13.85 0 14.45.09 17 2.45 3.4 3.14 3.48 7.47.24 11.24l-2.41 2.81-22.1.32-22.08.32V677h264V363.04l-96.59-.27-96.58-.27-2.42-2.8c-3.24-3.78-3.15-8.1.24-11.25l2.64-2.45h177.78l10.11 8c12.61 9.98 13.62 10.1 23.92 2.67 16.07-11.58 61.47-46.08 62.62-47.58 2.32-3.04 1.53-7.7-1.8-10.5-3.4-2.87-5-3.15-8.24-1.43-1.2.63-15.57 11.2-31.94 23.5C564.38 332.95 550.5 343 549.9 343s-17.28-12.94-37.07-28.75c-35.12-28.06-35.97-28.82-35.38-31.75.33-1.65 4-14.25 8.16-28 13.38-44.28 14.39-47.75 14.39-49.72 0-1.06-1.31-3.25-2.92-4.86l-2.93-2.92h-170.3zm37.72 85.9c.58 5.52.46 5.96-2.15 8l-2.76 2.18h109.62l-2.32-2.46c-2.05-2.2-2.24-3.1-1.66-8l.65-5.54H358.03zm47.19 127.47c-2.86 1.28-9.9 8.7-24.64 25.97-7.22 8.46-9.19 11.42-9.19 13.81 0 4.2 1.4 6.43 4.96 7.9 4.13 1.71 7.86.08 12.15-5.3C395.74 447.32 408.3 433 409 433c.96 0 14.63 15.97 25.69 30 18.34 23.28 33.56 48.9 38.24 64.36 6.43 21.26-1.6 48.1-19.43 64.94-5.05 4.77-16.13 11.65-22.8 14.16-25.54 9.62-54.5 1.08-72.85-21.48-13.08-16.08-18.29-39.63-12.73-57.62 2.41-7.83 8.85-21.12 16-33 6.44-10.74 6.42-15.65-.08-18.34-5.23-2.17-8.11-.1-14.41 10.32-17.05 28.19-22.29 45.69-19.71 65.9a85.8 85.8 0 0 0 61.58 71.93c11.38 3.26 29.62 3.26 41 0a85.9 85.9 0 0 0 61.56-71.56c1.37-10.46.13-23.13-3.24-32.96-7.2-21.02-28.25-53.77-53.75-83.65-7.93-9.28-19.1-21.4-20.44-22.13q-4.04-2.24-7.8-.57"/>
</svg>