<svg xmlns="http://www.w3.org/2000/svg" xml:space="preserve" version="1.0" viewBox="0 0 286.56 189.83">
  <path fill="#1f77b4" d="M145.77 117.79C145.77 77.99 113.14 0 72.89 0S0 78 0 117.79c0 39.79 32.63 72.05 72.89 72.05s72.88-32.27 72.88-72.05z"/>
  <path fill="#1f77b4" d="M167.4 189.83c40.25 0 119.16-32.26 119.16-72.05 0-39.78-78.91-72.04-119.16-72.04-40.26 0-72.89 32.26-72.89 72.04 0 39.8 32.63 72.05 72.89 72.05z"/>
  <path fill="#FFF" stroke="#FFF" stroke-linecap="round" stroke-linejoin="round" stroke-width=".26" d="M94 116.78a69.4 69.4 0 0 1 20.74-49.5 71.19 71.19 0 0 1 15.61-11.67 290.85 290.85 0 0 0-1.7-3.72c-23.11 12.61-38.77 36.94-38.77 64.89 0 22.98 10.2 45.03 26.82 58.61a63.98 63.98 0 0 0 3.26-2.62c-1.95-1.56-3.45-4.73-5.23-6.49a69.36 69.36 0 0 1-20.75-49.5z"/>
</svg>