<svg version="1.1" xmlns="http://www.w3.org/2000/svg" xmlns:xlink="http://www.w3.org/1999/xlinkviewBox="0 0 210 210" style="enable-background:new 0 0 210 210" xml:space="preserve"><path d="M200.689,146.429h-50.498l-13.793-10.345c-0.732-0.552-1.66-0.815-2.551-0.725l-19.774,1.797
c-2.062-0.437-10.102-2.226-19.368-5.315c-2.174-0.727-4.511-1.051-6.88-1.151c0.086-0.34,0.18-0.678,0.164-1.046
c-1.428-32.844,17.743-47.871,24.855-52.298l6.029,10.441c0.685,1.187,1.927,1.847,3.204,1.847c0.626,0,1.263-0.159,1.844-0.494
l28.798-16.626l0.002-0.001l6.399-3.695l35.199-20.322c0.848-0.491,1.469-1.299,1.721-2.244c0.254-0.946,0.121-1.956-0.368-2.804
L171.656,1.851c-1.023-1.768-3.286-2.378-5.048-1.353l-28.799,16.626h-0.001l-6.399,3.695L96.21,41.142
c-0.848,0.491-1.469,1.299-1.721,2.244c-0.254,0.946-0.121,1.956,0.368,2.804l3.209,5.558
c-12.792,4.63-54.251,22.541-52.56,59.745c0.09,1.985,1.725,3.529,3.688,3.529c0.058,0,0.114,0,0.171-0.004
c2.039-0.094,3.615-1.822,3.523-3.857c-1.504-33.085,39.376-49.507,48.944-52.889l1.072,1.856
c-9.55,5.379-33.613,21.255-35.223,45.412c-0.137,2.035,1.404,3.796,3.441,3.933c0.083,0.004,0.166,0.007,0.249,0.007
c1.929,0,3.552-1.498,3.682-3.45c1.36-20.397,23.14-34.695,31.558-39.484l2.541,4.401c-8.313,5.136-30.145,22.178-28.543,59.014
c0.017,0.389,0.137,0.742,0.264,1.089c-5.636,0.756-10.822,2.405-13.835,3.526c-2.632-2.782-8.041-6.621-17.839-6.621
c-3.354,0-7.704,0.285-10.563,2.291c-0.646-0.422-1.369-0.815-2.178-1.147c-4.132-1.721-9.035-1.378-14.579,1.003
c-5.44,2.331-8.876,5.614-10.217,9.76c-0.805,2.488-0.67,4.768-0.279,6.567h-2.83c-2.04,0-3.695,1.653-3.695,3.695
c0,32.598,44.754,59.119,99.763,59.119c55.009,0,99.763-26.521,99.763-59.119C204.383,148.081,202.729,146.429,200.689,146.429z
M167.102,8.746l20.322,35.196l-22.399,12.932l-20.322-35.196L167.102,8.746z M135.104,27.221l3.199-1.847l20.322,35.195
l-3.199,1.847l-3.199,1.847l-20.322-35.195L135.104,27.221z M103.104,45.694l22.4-12.931l20.321,35.196l-22.399,12.932
l-11.497-19.913c-0.048-0.377-0.106-0.755-0.278-1.117c-0.264-0.556-0.671-0.977-1.131-1.324L103.104,45.694z M18.712,142.07
c0.844-2.49,3.77-4.189,6.076-5.178c7.762-3.32,10.659-0.166,11.507,1.23c0.171,0.415,0.374,0.794,0.59,1.118
c1.052,1.577,3.121,2.104,4.794,1.22c1.611-0.848,2.356-2.732,1.786-4.438c0.779-0.285,2.446-0.678,5.732-0.678
c10.239,0,13.233,5.192,13.322,5.348c0.882,1.768,2.998,2.522,4.806,1.725c4.261-1.891,17.062-6.224,25.042-3.569
c11.175,3.727,20.38,5.586,20.766,5.661c0.35,0.069,0.711,0.094,1.059,0.058l18.908-1.721l4.775,3.583H19.141l-0.005-0.011
C19.125,146.396,17.961,144.282,18.712,142.07z M104.621,201.852c-48.714,0-88.743-21.228-92.14-48.034h1.615H148.96h47.801
C193.364,180.625,153.335,201.852,104.621,201.852z"/></svg>
