<svg xmlns="http://www.w3.org/2000/svg" xml:space="preserve" fill="#1f77b4" viewBox="0 0 54 54">
  <path d="m49.3 44.73-2.82-2.82c0-.09 0-.18-.02-.27l-2.7-22.29c1.21-.3 2.07-1.18 2.07-2.24v-.2c0-2.75-2.74-5.21-6.16-5.78C38.57 9.21 33.4 1.08 24.63.02L24.53 0h-.12c-8.73 1.06-13.9 9.14-15.03 11.1-3.5.5-6.34 3-6.34 5.8v.2c0 1.23 1.14 2.2 2.66 2.34L3.53 41.7l-.02.24-2.79 2.78A2.4 2.4 0 0 0 .2 47.4a2.4 2.4 0 0 0 2.61 1.49l5.2-.75.16.05a77.18 77.18 0 0 0 32.57.18l1.04-.22.1-.03 5.35.77c.12.02.24.02.36.02.98 0 1.86-.6 2.24-1.51a2.4 2.4 0 0 0-.53-2.66zM5.02 17.1v-.2c0-1.8 2.46-3.9 5.64-3.9H38.2c3.18 0 5.65 2.1 5.65 3.9v.19c-.03.06-.2.2-.47.29L35 18.62c-.49.07-1.06.13-1.68.2-2.35.22-5.53.35-8.94.35-4.5 0-8.63-.23-11.06-.6l-7.43-1.13v.02c-.51-.05-.83-.27-.86-.35zm29.33 15.13H38v3.66c0 2.95-2.39 5.34-5.34 5.34h-3.65v-3.66c0-2.95 2.39-5.34 5.34-5.34zM22.42 26.6 25.01 24l2.58 2.59a5.34 5.34 0 0 1 0 7.55l-2.58 2.59-2.59-2.59a5.34 5.34 0 0 1 0-7.55zm-9.4 9.3v-3.66h3.65c2.95 0 5.34 2.4 5.34 5.34v3.66h-3.65a5.34 5.34 0 0 1-5.34-5.34z"/>
</svg>